<?xml version="1.0" encoding="UTF-8" standalone="no" ?>
<!DOCTYPE svg PUBLIC "-//W3C//DTD SVG 1.1//EN" "http://www.w3.org/Graphics/SVG/1.1/DTD/svg11.dtd">
<svg xmlns="http://www.w3.org/2000/svg" xmlns:xlink="http://www.w3.org/1999/xlink" version="1.1" width="1080" height="1080" viewBox="0 0 1080 1080" xml:space="preserve">
<desc>Created with Fabric.js 5.2.4</desc>
<defs>
</defs>
<rect x="0" y="0" width="100%" height="100%" fill="transparent"></rect>
<g transform="matrix(1 0 0 1 540 540)" id="8fdce9f1-ca01-46f2-a09e-8295ebf78378"  >
<rect style="stroke: none; stroke-width: 1; stroke-dasharray: none; stroke-linecap: butt; stroke-dashoffset: 0; stroke-linejoin: miter; stroke-miterlimit: 4; fill: rgb(255,255,255); fill-rule: nonzero; opacity: 1; visibility: hidden;" vector-effect="non-scaling-stroke"  x="-540" y="-540" rx="0" ry="0" width="1080" height="1080" />
</g>
<g transform="matrix(1 0 0 1 540 540)" id="fc094da6-694c-4ec6-9d68-fbb58eeea193"  >
</g>
<g transform="matrix(1 0 0 1 50 50)"  >
<rect style="stroke: none; stroke-width: 1; stroke-dasharray: none; stroke-linecap: butt; stroke-dashoffset: 0; stroke-linejoin: miter; stroke-miterlimit: 4; fill: rgb(255,255,255); fill-opacity: 0; fill-rule: nonzero; opacity: 1;" vector-effect="non-scaling-stroke"  x="-50" y="-50" rx="0" ry="0" width="100" height="100" />
</g>
<g transform="matrix(1 0 0 1 540 540)"  >
<rect style="stroke: none; stroke-width: 1; stroke-dasharray: none; stroke-linecap: butt; stroke-dashoffset: 0; stroke-linejoin: miter; stroke-miterlimit: 4; fill: rgb(255,255,255); fill-rule: nonzero; opacity: 1; visibility: hidden;" vector-effect="non-scaling-stroke"  x="-540" y="-540" rx="0" ry="0" width="1080" height="1080" />
</g>
<g transform="matrix(1 0 0 1 560.71 540)"  >
<rect style="stroke: none; stroke-width: 1; stroke-dasharray: none; stroke-linecap: butt; stroke-dashoffset: 0; stroke-linejoin: miter; stroke-miterlimit: 4; fill: rgb(255,255,255); fill-rule: nonzero; opacity: 1; visibility: hidden;" vector-effect="non-scaling-stroke"  x="-540" y="-540" rx="0" ry="0" width="1080" height="1080" />
</g>
<g transform="matrix(1 0 0 1 559.98 540)"  >
<rect style="stroke: none; stroke-width: 1; stroke-dasharray: none; stroke-linecap: butt; stroke-dashoffset: 0; stroke-linejoin: miter; stroke-miterlimit: 4; fill: rgb(255,255,255); fill-rule: nonzero; opacity: 1; visibility: hidden;" vector-effect="non-scaling-stroke"  x="-540" y="-540" rx="0" ry="0" width="1080" height="1080" />
</g>
<g transform="matrix(1.48 0 0 1.48 540 540)"  >
<rect style="stroke: none; stroke-width: 1; stroke-dasharray: none; stroke-linecap: butt; stroke-dashoffset: 0; stroke-linejoin: miter; stroke-miterlimit: 4; fill: rgb(255,255,255); fill-rule: nonzero; opacity: 0.5; visibility: hidden;" vector-effect="non-scaling-stroke"  x="-540" y="-540" rx="0" ry="0" width="1080" height="1080" />
</g>
<g transform="matrix(1.08 0 0 1.08 540 508.9)"  >
<rect style="stroke: none; stroke-width: 1; stroke-dasharray: none; stroke-linecap: butt; stroke-dashoffset: 0; stroke-linejoin: miter; stroke-miterlimit: 4; fill: rgb(255,255,255); fill-rule: nonzero; opacity: 1; visibility: hidden;" vector-effect="non-scaling-stroke"  x="-540" y="-540" rx="0" ry="0" width="1080" height="1080" />
</g>
<g transform="matrix(1.08 0 0 1.08 540 508.9)"  >
<rect style="stroke: none; stroke-width: 1; stroke-dasharray: none; stroke-linecap: butt; stroke-dashoffset: 0; stroke-linejoin: miter; stroke-miterlimit: 4; fill: rgb(255,255,255); fill-rule: nonzero; opacity: 1; visibility: hidden;" vector-effect="non-scaling-stroke"  x="-540" y="-540" rx="0" ry="0" width="1080" height="1080" />
</g>
<g transform="matrix(1.08 0 0 1.08 8.37 -22.73)"  >
<rect style="stroke: none; stroke-width: 1; stroke-dasharray: none; stroke-linecap: butt; stroke-dashoffset: 0; stroke-linejoin: miter; stroke-miterlimit: 4; fill: rgb(255,255,255); fill-opacity: 0; fill-rule: nonzero; opacity: 1;" vector-effect="non-scaling-stroke"  x="-50" y="-50" rx="0" ry="0" width="100" height="100" />
</g>
<g transform="matrix(1.08 0 0 1.08 540 508.9)"  >
<rect style="stroke: none; stroke-width: 1; stroke-dasharray: none; stroke-linecap: butt; stroke-dashoffset: 0; stroke-linejoin: miter; stroke-miterlimit: 4; fill: rgb(255,255,255); fill-rule: nonzero; opacity: 1; visibility: hidden;" vector-effect="non-scaling-stroke"  x="-540" y="-540" rx="0" ry="0" width="1080" height="1080" />
</g>
<g transform="matrix(1.08 0 0 1.08 8.37 -22.73)"  >
<rect style="stroke: none; stroke-width: 1; stroke-dasharray: none; stroke-linecap: butt; stroke-dashoffset: 0; stroke-linejoin: miter; stroke-miterlimit: 4; fill: rgb(255,255,255); fill-opacity: 0; fill-rule: nonzero; opacity: 1;" vector-effect="non-scaling-stroke"  x="-50" y="-50" rx="0" ry="0" width="100" height="100" />
</g>
<g transform="matrix(1.08 0 0 1.08 540 508.9)"  >
<rect style="stroke: none; stroke-width: 1; stroke-dasharray: none; stroke-linecap: butt; stroke-dashoffset: 0; stroke-linejoin: miter; stroke-miterlimit: 4; fill: rgb(255,255,255); fill-rule: nonzero; opacity: 1; visibility: hidden;" vector-effect="non-scaling-stroke"  x="-540" y="-540" rx="0" ry="0" width="1080" height="1080" />
</g>
<g transform="matrix(1.08 0 0 1.08 540 508.9)"  >
<rect style="stroke: none; stroke-width: 1; stroke-dasharray: none; stroke-linecap: butt; stroke-dashoffset: 0; stroke-linejoin: miter; stroke-miterlimit: 4; fill: rgb(255,255,255); fill-rule: nonzero; opacity: 1; visibility: hidden;" vector-effect="non-scaling-stroke"  x="-540" y="-540" rx="0" ry="0" width="1080" height="1080" />
</g>
<g transform="matrix(1.08 0 0 1.08 -45.87 -76.97)"  >
<path style="stroke: none; stroke-width: 1; stroke-dasharray: none; stroke-linecap: butt; stroke-dashoffset: 0; stroke-linejoin: miter; stroke-miterlimit: 4; fill: rgb(0,0,0); fill-rule: nonzero; opacity: 1;" vector-effect="non-scaling-stroke"  transform=" translate(0, 0)" d="" stroke-linecap="round" />
</g>
<g transform="matrix(1.08 0 0 1.08 -45.87 -76.97)"  >
<path style="stroke: none; stroke-width: 1; stroke-dasharray: none; stroke-linecap: butt; stroke-dashoffset: 0; stroke-linejoin: miter; stroke-miterlimit: 4; fill: rgb(0,0,0); fill-rule: nonzero; opacity: 1;" vector-effect="non-scaling-stroke"  transform=" translate(0, 0)" d="" stroke-linecap="round" />
</g>
<g transform="matrix(48.82 0 0 48.82 540 508.9)"  >
<path style="stroke: none; stroke-width: 1; stroke-dasharray: none; stroke-linecap: butt; stroke-dashoffset: 0; stroke-linejoin: miter; stroke-miterlimit: 4; fill: rgb(255,255,255); fill-rule: evenodd; opacity: 0.3;" vector-effect="non-scaling-stroke"  transform=" translate(-12, -12)" d="M 20.73 9.74 L 20.73 9.75 C 21.34 10.37 22 11.07 22 12 C 22 12.93 21.33 13.629999999999999 20.74 14.25 C 20.4 14.6 20.049999999999997 14.96 19.919999999999998 15.28 C 19.799999999999997 15.58 19.79 16.06 19.79 16.52 C 19.77 17.4 19.759999999999998 18.39 19.07 19.07 C 18.39 19.76 17.4 19.77 16.53 19.79 C 16.060000000000002 19.79 15.57 19.8 15.280000000000001 19.919999999999998 C 14.96 20.049999999999997 14.610000000000001 20.4 14.260000000000002 20.729999999999997 L 14.250000000000002 20.729999999999997 C 13.63 21.34 12.93 22 12 22 C 11.07 22 10.370000000000001 21.33 9.75 20.74 C 9.4 20.4 9.04 20.049999999999997 8.72 19.919999999999998 C 8.42 19.799999999999997 7.94 19.79 7.48 19.79 C 6.6000000000000005 19.77 5.61 19.759999999999998 4.930000000000001 19.07 C 4.24 18.39 4.23 17.4 4.210000000000001 16.53 C 4.210000000000001 16.060000000000002 4.200000000000001 15.57 4.080000000000001 15.280000000000001 C 3.950000000000001 14.96 3.600000000000001 14.610000000000001 3.270000000000001 14.260000000000002 L 3.270000000000001 14.250000000000002 C 2.66 13.63 2 12.93 2 12 C 2 11.07 2.67 10.370000000000001 3.26 9.75 C 3.6 9.4 3.96 9.04 4.09 8.72 C 4.2 8.42 4.2 7.94 4.2 7.48 L 4.2 7.42 C 4.22 6.56 4.24 5.59 4.92 4.92 C 5.6 4.24 6.6 4.23 7.47 4.2 C 7.9399999999999995 4.2 8.43 4.19 8.719999999999999 4.07 C 9.04 3.9400000000000004 9.389999999999999 3.5900000000000003 9.739999999999998 3.2600000000000002 L 9.749999999999998 3.2600000000000002 C 10.37 2.66 11.07 2 12 2 C 12.93 2 13.629999999999999 2.67 14.25 3.26 C 14.6 3.5999999999999996 14.96 3.9499999999999997 15.28 4.08 C 15.58 4.2 16.06 4.21 16.52 4.21 C 17.4 4.2299999999999995 18.39 4.24 19.07 4.93 C 19.76 5.609999999999999 19.77 6.6 19.79 7.47 C 19.79 7.9399999999999995 19.8 8.43 19.919999999999998 8.719999999999999 C 20.049999999999997 9.04 20.4 9.389999999999999 20.729999999999997 9.739999999999998 Z M 11.88 16.48 C 11.42 15.52 10.82 14.440000000000001 10.180000000000001 13.8 C 9.55 13.17 8.480000000000002 12.58 7.530000000000001 12.120000000000001 C 6.880000000000001 11.82 6.900000000000001 10.82 7.580000000000001 10.590000000000002 L 14.59 8.250000000000002 C 15.31 8 16 8.69 15.75 9.4 L 13.41 16.42 C 13.19 17.090000000000003 12.18 17.12 11.88 16.470000000000002 Z" stroke-linecap="round" />
</g>
<g transform="matrix(48.82 0 0 48.82 513.31 537.72)"  >
<path style="stroke: none; stroke-width: 1; stroke-dasharray: none; stroke-linecap: butt; stroke-dashoffset: 0; stroke-linejoin: miter; stroke-miterlimit: 4; fill: rgb(255,255,255); fill-rule: nonzero; opacity: 1;" vector-effect="non-scaling-stroke"  transform=" translate(-11.43, -12.57)" d="M 10.19 13.8 C 10.82 14.440000000000001 11.42 15.520000000000001 11.879999999999999 16.48 C 12.18 17.13 13.18 17.1 13.409999999999998 16.43 L 15.749999999999998 9.41 C 16 8.69 15.31 8 14.6 8.25 L 7.6 10.59 C 6.91 10.81 6.89 11.82 7.54 12.12 C 8.49 12.58 9.56 13.17 10.2 13.799999999999999 Z" stroke-linecap="round" />
</g>
</svg>